<?xml version="1.0" encoding="UTF-8" standalone="no"?>
<!-- Created with Inkscape (http://www.inkscape.org/) -->

<svg
   xmlns:dc="http://purl.org/dc/elements/1.1/"
   xmlns:cc="http://creativecommons.org/ns#"
   xmlns:rdf="http://www.w3.org/1999/02/22-rdf-syntax-ns#"
   xmlns:svg="http://www.w3.org/2000/svg"
   xmlns="http://www.w3.org/2000/svg"
   xmlns:sodipodi="http://sodipodi.sourceforge.net/DTD/sodipodi-0.dtd"
   xmlns:inkscape="http://www.inkscape.org/namespaces/inkscape"
   id="svg2"
   version="1.1"
   inkscape:version="0.48.4 r9939"
   width="668.3625"
   height="581.5125"
   xml:space="preserve"
   sodipodi:docname="google-developers.eps"
   inkscape:export-filename="/home/polin/Downloads/rar/google-developers.png"
   inkscape:export-xdpi="172.36156"
   inkscape:export-ydpi="172.36156"><metadata
     id="metadata8"><rdf:RDF><cc:Work
         rdf:about=""><dc:format>image/svg+xml</dc:format><dc:type
           rdf:resource="http://purl.org/dc/dcmitype/StillImage" /><dc:title></dc:title></cc:Work></rdf:RDF></metadata><defs
     id="defs6"><clipPath
       clipPathUnits="userSpaceOnUse"
       id="clipPath26"><path
         d="m 3817.02,2938 c 172.49,-265.19 328.39,-540.54 500.39,-806.19 58.72,-86.75 88.46,-188.61 107.31,-290.72 l -44.31,-74.11 -767.92,604.53 c 40.41,71.4 120.52,240.34 160.89,311.73 45.36,76.58 46.37,168.52 43.64,254.76 l 0,0 z"
         id="path28" /></clipPath><radialGradient
       fx="0"
       fy="0"
       cx="0"
       cy="0"
       r="1"
       gradientUnits="userSpaceOnUse"
       gradientTransform="matrix(57.2018,41.8823,-64.3553,87.8949,443.699,174.184)"
       spreadMethod="pad"
       id="radialGradient30"><stop
         style="stop-opacity:1;stop-color:#d5a827"
         offset="0"
         id="stop32" /><stop
         style="stop-opacity:1;stop-color:#f4c12a"
         offset="1"
         id="stop34" /></radialGradient><clipPath
       clipPathUnits="userSpaceOnUse"
       id="clipPath42"><path
         d="m 919.996,3950.2 c 255.904,-203.38 511.814,-406.74 767.734,-610.12 -80.4,-172.13 -201.27,-329.22 -234.15,-520.47 -1.73,-35.64 -11.69,-39.46 -28.16,-5.09 -166.58,261.46 -329.34,512.74 -495.053,774.73 -41.629,72.62 -65.773,153.45 -86.644,234.03 25.422,42.31 50.847,84.61 76.273,126.92 z"
         id="path44" /></clipPath><radialGradient
       fx="0"
       fy="0"
       cx="0"
       cy="0"
       r="1"
       gradientUnits="userSpaceOnUse"
       gradientTransform="matrix(66.8874,-81.0302,44.3285,36.5916,79.6221,388.255)"
       spreadMethod="pad"
       id="radialGradient46"><stop
         style="stop-opacity:1;stop-color:#b62d30"
         offset="0"
         id="stop48" /><stop
         style="stop-opacity:1;stop-color:#d63032"
         offset="1"
         id="stop50" /></radialGradient></defs><sodipodi:namedview
     pagecolor="#ffffff"
     bordercolor="#666666"
     borderopacity="1"
     objecttolerance="10"
     gridtolerance="10"
     guidetolerance="10"
     inkscape:pageopacity="0"
     inkscape:pageshadow="2"
     inkscape:window-width="1360"
     inkscape:window-height="713"
     id="namedview4"
     showgrid="false"
     inkscape:zoom="0.81167643"
     inkscape:cx="150.99199"
     inkscape:cy="279.14145"
     inkscape:window-x="0"
     inkscape:window-y="30"
     inkscape:window-maximized="1"
     inkscape:current-layer="g12" /><g
     id="g10"
     inkscape:groupmode="layer"
     inkscape:label="ink_ext_XXXXXX"
     transform="matrix(1.25,0,0,-1.25,0,581.5125)"><g
       id="g12"
       transform="scale(0.1,0.1)"><path
         d="m 1678.0152,4035.7198 c 26.02,59.48 101.12,47.34 153.64,51.8 l 746.5099,-1.98 c 119.95,0.49 235.18,-67.67 296.38,-170.27 l 895.7098,-1458.2704 c 69.89,-105.33 70.86,-250.8 0,-355.89 -171.26,-273.12 -333.09,-551.94 -508.56,-821.82 -18.85,102.11 -48.59,203.97 -107.31,290.72 -171.9998,265.65 -327.8998,541 -500.3898,806.19 l -940.0599,1517.7604 c -24.51,42.38 -54.99,91.19 -35.92,141.76"
         style="fill:#026e00;fill-opacity:1;fill-rule:nonzero;stroke:none"
         id="path16"
         inkscape:connector-curvature="0" /><path
         d="m 2654.1051,2376.3194 c 8.02,-105.16 -8.41,-214.89 -72.46,-301.1 -293.98,-480.86 -590.1999,-960.56 -882.7099,-1442.14969 -52.38,-79.29 7.21,-158.77 94.04,-156.06 l 801.8499,-3.92 c 139.42,5.04 261.14,100.4 319.47,224.22 112.34,195.93966 232.1,387.59969 347.6498,581.72969 -18.16,127.36 -72.71,244.67 -144.3998,350.15 -154.46,249.04 -308.94,498.09 -463.44,747.13"
         style="fill:#026e00;fill-opacity:1;fill-rule:nonzero;stroke:none"
         id="path20"
         inkscape:connector-curvature="0" /><g
         id="g22"
         transform="translate(-1163.025,-545.80029)"><g
           id="g24"
           clip-path="url(#clipPath26)"><path
             d="m 3817.02,2938 c 172.49,-265.19 328.39,-540.54 500.39,-806.19 58.72,-86.75 88.46,-188.61 107.31,-290.72 l -44.31,-74.11 -767.92,604.53 c 40.41,71.4 120.52,240.34 160.89,311.73 45.36,76.58 46.37,168.52 43.64,254.76 l 0,0"
             style="fill:#026e00;fill-opacity:1;fill-rule:nonzero;stroke:none"
             id="path36"
             inkscape:connector-curvature="0" /></g></g><g
         id="g54"
         transform="scale(10,10)" /></g></g></svg>